<?xml version="1.0" encoding="utf-8"?>
<!-- Generator: Adobe Illustrator 15.0.2, SVG Export Plug-In . SVG Version: 6.00 Build 0)  -->
<!DOCTYPE svg PUBLIC "-//W3C//DTD SVG 1.1//EN" "http://www.w3.org/Graphics/SVG/1.1/DTD/svg11.dtd">
<svg version="1.1" id="Layer_1" xmlns="http://www.w3.org/2000/svg" xmlns:xlink="http://www.w3.org/1999/xlink" x="0px" y="0px"
	 width="512px" height="443.729px" viewBox="0 0 512 443.729" enable-background="new 0 0 512 443.729" xml:space="preserve">
<path d="M341.333,76.802c21.125,0,38.396-17.172,38.396-38.4C379.729,17.172,362.458,0,341.333,0
	c-21.229,0-38.396,17.172-38.396,38.401C302.938,59.63,320.104,76.802,341.333,76.802z M405.333,230.401
	c-58.875,0-106.666,47.786-106.666,106.661s47.791,106.667,106.666,106.667S512,395.938,512,337.062
	S464.208,230.401,405.333,230.401z M405.333,411.729c-41.281,0-74.666-33.375-74.666-74.667c0-41.271,33.385-74.667,74.666-74.667
	S480,295.792,480,337.062C480,378.354,446.614,411.729,405.333,411.729z M315.729,187.734h89.604v-38.401h-68.271l-41.271-69.65
	C289.5,69.016,277.864,61.87,264.531,61.87c-10.026,0-19.094,4.052-25.599,10.666L160,151.359
	c-6.614,6.614-10.667,15.683-10.667,25.708c0,13.438,7.146,24.745,18.136,31.359l71.464,43.308v106.661h38.4V220.161l-48-35.625
	l49.5-49.708L315.729,187.734z M106.667,230.401C47.786,230.401,0,278.188,0,337.062s47.786,106.667,106.667,106.667
	c58.88,0,106.666-47.792,106.666-106.667S165.547,230.401,106.667,230.401z M106.667,411.729C65.386,411.729,32,378.354,32,337.062
	c0-41.271,33.386-74.667,74.667-74.667s74.666,33.396,74.666,74.667C181.333,378.354,147.948,411.729,106.667,411.729z"/>
</svg>
